Coordinates
version=1
nRows=11
nColumns=42
inDegrees=yes

Units are S.I. units (second, meters, Newtons, ...)
If the header above contains a line with 'inDegrees', this indicates whether rotational values are in degrees (yes) or radians (no).

endheader
time	pelvis_tilt	pelvis_list	pelvis_rotation	pelvis_tx	pelvis_ty	pelvis_tz	hip_flexion_r	hip_adduction_r	hip_rotation_r	knee_angle_r	knee_adduction_r	knee_angle_r_beta	ankle_angle_r	subtalar_angle_r	mtp_angle_r	hip_flexion_l	hip_adduction_l	hip_rotation_l	knee_angle_l	knee_adduction_l	knee_angle_l_beta	ankle_angle_l	subtalar_angle_l	mtp_angle_l	lumbar_extension	lumbar_bending	lumbar_rotation	arm_flex_r	arm_add_r	arm_rot_r	elbow_flex_r	pro_sup_r	wrist_flex_r	wrist_dev_r	arm_flex_l	arm_add_l	arm_rot_l	elbow_flex_l	pro_sup_l	wrist_flex_l	wrist_dev_l
      0.89000000	     -3.70900910	     -3.20623385	     -4.31632744	     -0.69392147	      0.92603458	      0.24354747	    -10.24871381	      6.62453936	     -4.66788363	     19.18675630	     -2.61476422	      0.33487207	     18.38189404	     -0.79950405	     -7.83292569	     33.97318515	     -4.77811608	    -13.24938809	     13.59459380	     -1.53152581	      0.23727042	     -0.26073965	     -3.92313229	     -7.83292569	     -7.73081707	      2.43116532	      9.73693728	      2.24503818	     -9.59492979	     -0.62749143	     34.54748696	     90.00000001	      0.00000000	      0.00000000	     -6.35010655	     -7.65785957	    -17.40704538	     21.01226743	     90.00000001	      0.00000000	      0.00000000
      0.90000000	     -3.61312849	     -2.74169369	     -4.30046219	     -0.67781225	      0.92495671	      0.24283936	    -10.54355188	      5.92894986	     -4.36658322	     20.74705285	     -2.65635848	      0.36210438	     17.52621032	     -1.10445897	     -7.82920713	     34.20598686	     -4.08886332	    -13.29404128	     15.44963162	     -2.04069378	      0.26964694	     -1.11276571	     -4.62093868	     -7.82920713	     -7.71935082	      1.70792513	      9.55009116	      2.01823065	     -9.32470490	     -0.68714280	     34.37128156	     90.00000001	      0.00000000	      0.00000000	     -6.70946302	     -7.76288554	    -17.63262350	     20.63746363	     90.00000001	      0.00000000	      0.00000000
      0.91000000	     -3.46440486	     -2.23346553	     -4.16750496	     -0.66160242	      0.92437534	      0.24201719	    -10.78888481	      5.23674503	     -3.94409575	     22.46925078	     -2.65856440	      0.39216241	     16.48575524	     -1.36406960	     -7.82700339	     34.34026269	     -3.28116404	    -12.88800326	     17.41672358	     -2.50387458	      0.30397917	     -1.94126489	     -5.19474401	     -7.82700339	     -7.77738476	      0.93030317	      9.30413454	      1.76437752	     -9.01199158	     -0.76348070	     34.13048834	     90.00000001	      0.00000000	      0.00000000	     -6.90780829	     -7.93554143	    -17.77921400	     20.26190185	     90.00000001	      0.00000000	      0.00000000
      0.92000000	     -3.75053561	     -1.55110960	     -4.04381674	     -0.64562339	      0.92394519	      0.24105841	    -10.21777020	      4.41298187	     -3.52109113	     24.73625145	     -2.63333347	      0.43172903	     14.21641529	     -3.78572828	     -7.80205403	     34.75365059	     -2.22752413	    -11.53403013	     19.17841421	     -2.71627386	      0.33472647	     -4.42310155	     -9.46476270	     -7.80205403	     -7.30149092	     -0.02996041	      9.05760441	      1.70043570	     -8.32284933	     -2.11423390	     33.01278466	     90.00000001	      0.00000000	      0.00000000	     -6.60856290	     -7.96155965	    -19.23102073	     18.78091639	     90.00000001	      0.00000000	      0.00000000
      0.93000000	     -3.62650106	     -0.83023467	     -3.82174499	     -0.62931728	      0.92423404	      0.23994451	     -9.93403922	      3.46915650	     -3.69250190	     27.16911029	     -2.68851117	      0.47419043	     12.02312119	     -4.52192957	     -7.79752774	     34.87561622	     -1.14534383	    -11.21554035	     21.27446798	     -3.20235978	      0.37130951	     -5.10919306	    -10.37841226	     -7.79752774	     -7.30868210	     -1.05067949	      8.66022488	      1.33487748	     -7.97177800	     -2.20923390	     32.74999850	     90.00000001	      0.00000000	      0.00000000	     -6.77177672	     -8.09778819	    -19.47478757	     18.45666485	     90.00000001	      0.00000000	      0.00000000
      0.94000000	     -3.62923898	     -0.16830332	     -3.52074376	     -0.61323248	      0.92502634	      0.23871976	     -9.37861922	      2.60610738	     -3.24151082	     29.77250652	     -2.33909385	      0.51962827	      8.90797661	     -7.09101342	     -7.77657831	     34.80677284	     -0.02020698	     -9.50199270	     22.93955091	     -3.12295235	      0.40037069	     -6.54653246	    -13.54369886	     -7.77657831	     -7.21276209	     -1.96818541	      8.21256160	      1.11882370	     -7.45708954	     -2.87900035	     32.00429003	     90.00000001	      0.00000000	      0.00000000	     -6.56619331	     -8.15322902	    -20.48422903	     17.65001001	     90.00000001	      0.00000000	      0.00000000
      0.95000000	     -3.54539888	      0.50339289	     -3.19423768	     -0.59714520	      0.92620122	      0.23739605	     -8.68618280	      1.71318342	     -3.22387320	     32.58084720	     -2.13060449	      0.56864306	      5.54289860	     -9.03197706	     -7.76049943	     34.65436026	      1.10901888	     -8.52238834	     24.61909821	     -3.23708771	      0.42968432	     -6.92268457	    -14.97647176	     -7.76049943	     -7.21593272	     -2.88285021	      7.72613576	      0.77796231	     -7.07513839	     -3.12934836	     31.48369427	     90.00000001	      0.00000000	      0.00000000	     -6.43487440	     -8.24731958	    -21.14420739	     17.17632551	     90.00000001	      0.00000000	      0.00000000
      0.96000000	     -3.38459983	      1.15387999	     -2.91698775	     -0.58116937	      0.92784925	      0.23604220	     -7.86912460	      0.79405132	     -3.20524418	     35.55094105	     -1.85687229	      0.62048097	      1.83663391	    -11.31173872	     -7.74299442	     34.24574169	      2.19471305	     -7.80627566	     26.01335841	     -3.34233736	      0.45401875	     -6.78530714	    -16.02430261	     -7.74299442	     -7.33196970	     -3.75656924	      7.27603732	      0.42099468	     -6.74617360	     -3.24869306	     30.99835475	     90.00000001	      0.00000000	      0.00000000	     -6.26256762	     -8.29692192	    -21.76338381	     16.80040120	     90.00000001	      0.00000000	      0.00000000
      0.97000000	     -3.26322050	      1.80306141	     -2.65920265	     -0.56538906	      0.92968204	      0.23458713	     -6.74058049	     -0.17981786	     -3.81147276	     38.68980176	     -1.91345317	      0.67526443	     -1.60654654	    -12.60180891	     -7.73732920	     33.75127007	      3.25786726	     -7.49394326	     27.15096231	     -3.52874577	      0.47387369	     -6.26856773	    -16.43092002	     -7.73732920	     -7.41283810	     -4.58479370	      6.82811211	     -0.01319346	     -6.50146907	     -3.19464016	     30.64515285	     90.00000001	      0.00000000	      0.00000000	     -6.15411953	     -8.32296248	    -21.92322947	     16.62972998	     90.00000001	      0.00000000	      0.00000000
      0.98000000	     -3.20133111	      2.30076323	     -2.44944658	     -0.54992870	      0.93177457	      0.23324339	     -5.44964270	     -0.94788528	     -3.91849751	     41.74045595	     -1.79451206	      0.72850839	     -5.09428859	    -14.73559765	     -7.72914455	     33.16084400	      4.10096288	     -7.34163544	     28.00920073	     -3.67451520	      0.48885277	     -5.52638454	    -16.73049158	     -7.72914455	     -7.45730386	     -5.22137131	      6.37584356	     -0.36377371	     -6.29089201	     -3.01733768	     30.18406925	     90.00000001	      0.00000000	      0.00000000	     -5.95416705	     -8.31980211	    -22.13973391	     16.44862589	     90.00000001	      0.00000000	      0.00000000
      0.99000000	     -3.17517329	      2.76551957	     -2.31654305	     -0.53476152	      0.93404643	      0.23192106	     -3.96392563	     -1.70624651	     -4.17002891	     44.74562642	     -1.83343685	      0.78095851	     -7.72965892	    -16.28623311	     -7.72251710	     32.44501222	      4.85902474	     -7.48944714	     28.53662283	     -3.88446520	      0.49805803	     -4.54447000	    -16.74628101	     -7.72251710	     -7.47119060	     -5.78655294	      6.02641172	     -0.74801897	     -6.15151550	     -2.77401688	     29.79934870	     90.00000001	      0.00000000	      0.00000000	     -5.73136100	     -8.27420456	    -22.29374306	     16.40572237	     90.00000001	      0.00000000	      0.00000000
